<?xml version="1.0" standalone="no"?>
<!DOCTYPE svg PUBLIC "-//W3C//DTD SVG 20010904//EN"
 "http://www.w3.org/TR/2001/REC-SVG-20010904/DTD/svg10.dtd">
<svg version="1.0" xmlns="http://www.w3.org/2000/svg"
 width="1920.000000pt" height="1920.000000pt" viewBox="0 0 1920.000000 1920.000000"
 preserveAspectRatio="xMidYMid meet">

<g transform="translate(0.000000,1920.000000) scale(0.100000,-0.100000)"
fill="#000000" stroke="none">
<path d="M7184 13565 c-2 -5 -3 -1211 -2 -2680 l3 -2670 140 -12 c746 -66
1405 -340 1992 -830 62 -51 115 -93 118 -93 3 0 5 1175 5 2610 l0 2610 -108
108 c-525 523 -1212 861 -1927 946 -181 21 -217 23 -221 11z"/>
<path d="M11770 13554 c-491 -66 -971 -245 -1378 -514 -223 -147 -463 -346
-587 -486 l-55 -63 0 -2601 0 -2602 51 44 c159 135 233 195 312 251 503 357
1079 573 1672 627 66 6 144 13 173 16 l52 5 0 2670 0 2669 -67 -1 c-38 -1
-115 -7 -173 -15z"/>
<path d="M6190 12659 c-135 -3 -255 -7 -267 -8 l-23 -1 0 -2676 0 -2676 63 6
c127 14 735 8 922 -9 968 -87 1816 -401 2508 -931 l47 -36 0 260 0 259 -127
124 c-580 564 -1257 876 -2037 939 -71 5 -163 10 -205 10 -86 0 -132 18 -165
63 l-21 28 -5 2317 -5 2317 -50 7 c-76 11 -362 14 -635 7z"/>
<path d="M12355 12651 l-40 -6 -5 -2322 -5 -2321 -25 -27 c-37 -40 -80 -55
-163 -55 -202 0 -512 -40 -736 -95 -568 -140 -1053 -409 -1464 -815 l-167
-165 0 -259 c0 -205 3 -256 13 -249 257 198 460 326 735 463 547 273 1140 436
1807 495 185 17 774 23 881 9 l54 -6 0 2674 0 2675 -61 7 c-77 8 -769 5 -824
-3z"/>
<path d="M5475 11885 c-180 -34 -623 -154 -665 -180 -7 -4 -10 -955 -10 -2667
l0 -2660 28 5 c15 2 115 27 222 55 483 124 904 169 1484 159 447 -8 739 -45
1156 -148 608 -149 1179 -406 1637 -736 56 -40 104 -73 107 -73 3 0 6 62 6
138 l-1 137 -80 69 c-369 317 -855 588 -1364 763 -612 210 -1301 297 -1971
251 -99 -7 -216 -13 -261 -13 -71 0 -84 3 -106 23 -13 12 -29 40 -36 61 -8 28
-11 660 -11 2434 0 1318 -3 2398 -7 2400 -5 2 -62 -6 -128 -18z"/>
<path d="M13570 9503 c0 -1371 -4 -2404 -9 -2427 -11 -44 -50 -89 -93 -107
-24 -10 -50 -10 -132 1 -165 21 -795 25 -1017 6 -613 -53 -1142 -198 -1664
-456 -317 -156 -535 -298 -807 -524 l-98 -81 0 -137 c0 -76 3 -138 6 -138 3 0
43 26 87 59 462 333 1010 585 1601 736 309 79 564 122 892 151 236 20 795 15
1029 -10 348 -38 698 -110 1015 -211 l20 -6 -2 2667 -3 2667 -55 19 c-95 33
-321 96 -419 118 -94 21 -315 60 -338 60 -10 0 -13 -484 -13 -2387z"/>
</g>
</svg>
